<svg width="132" height="59" viewBox="0 0 132 59" fill="none" xmlns="http://www.w3.org/2000/svg">
<mask id="path-1-inside-1_219_502" fill="white">
<path fill-rule="evenodd" clip-rule="evenodd" d="M19.5358 33.9165C19.5924 35.2365 19.6887 36.1056 19.6963 36.1924C20.3527 43.5779 22.4119 51.9053 23.1559 55.0028L16.2275 56.6488C13.7893 46.5804 10.9224 33.9587 13.1293 23.9859C14.0877 20.3783 16.0078 15.6914 20.1904 12.8307C23.7598 10.8078 27.2982 10.8929 29.1337 10.9606C36.5849 11.2362 43.9455 17.6472 42.4225 25.9046C41.957 28.4255 40.8474 30.4247 40.0316 31.3811C36.7665 35.2059 31.6723 36.6394 27.2223 36.2689C26.5337 36.2116 24.0927 36.1484 21.3759 34.9221C21.2597 33.1435 21.0518 31.0071 21.5488 27.3069C22.6263 28.9379 24.3671 30.3048 27.1721 30.4907C33.5481 30.9127 35.0776 25.6892 35.2201 23.9795C35.2534 23.5742 35.3912 20.5658 32.9285 18.4786C31.4626 17.2367 29.8689 16.5831 28.0504 16.6705C23.8708 16.8714 22.2402 19.5133 21.0612 22.2871C20.7581 22.9999 20.5105 23.7606 20.3096 24.544C19.7682 27.33 19.3512 30.0941 19.5358 33.9165ZM12.6078 19.6181C12.4904 16.1795 13.0073 13.3501 13.1293 12.6837C14.2331 6.64435 16.8354 2.03916 18.0133 0L24.2947 2.46818C23.2646 4.35043 21.8595 7.15153 20.9 10.1524C15.8461 12.2459 13.1416 18.1463 12.6078 19.6181ZM114.718 35.6551C113.546 35.9823 112.661 36.0969 112.201 36.1351C106.555 36.6018 100.43 35.6644 97.0252 30.5092C94.6221 26.8697 94.2069 21.7933 96.1551 18.067C97.9614 14.6128 102.283 10.7997 108.933 10.6914C115.83 10.5785 120.24 14.196 122.376 18.1399C124.557 21.7371 124.755 26.0754 124.552 28.9419C124.458 30.1381 124.26 31.7627 123.909 33.5205C123.27 36.7245 123.307 36.7291 122.725 39.9454C122.13 43.2287 121.223 48.1385 121.765 50.3808C121.963 51.1995 121.941 53.3354 126.019 53.12C126.329 53.1038 126.809 53.0383 126.877 53.0285L128.264 58.5554C128.201 58.5705 125.124 59.4771 121.642 58.6573C117.066 57.5804 115.248 53.8703 114.795 51.7183C113.923 47.5774 115.162 42.3661 116.543 35.0403C117.178 31.4651 117.261 29.7299 117.287 26.7644C117.454 18.7091 113.065 17.3878 111.327 16.9768C111.279 16.9658 109.224 16.6039 107.546 17.0758C104.955 17.8053 103.305 19.7686 102.763 21.5021C102.681 21.7655 101.847 23.4874 102.649 25.8838C102.891 26.6098 103.579 28.2535 106.274 29.4769C108.595 30.5306 112.31 30.5995 115.585 28.3021C115.496 31.23 115.14 33.3045 114.718 35.6551ZM123.221 16.0394C124.467 12.7439 125.22 9.81598 125.509 8.75703L132 10.2473C130.998 14.9978 129.6 20.7065 126.706 25.9208C126.7 25.9295 126.602 26.0956 126.422 26.373C126.358 24.4791 125.952 19.8526 123.221 16.0394ZM0.751022 11.6583H8.26003V35.6291H0.751022V11.6583ZM4.6054 9.54096C3.37084 9.54096 2.29453 9.1438 1.37708 8.34944C0.459038 7.55566 0 6.56329 0 5.37176C0 4.1808 0.459038 3.17975 1.37708 2.36918C2.29453 1.55861 3.37084 1.15332 4.6054 1.15332C5.77397 1.15332 6.80819 1.55861 7.70929 2.36918C8.61039 3.17975 9.06067 4.1808 9.06067 5.37176C9.06067 6.52971 8.61039 7.51454 7.70929 8.32511C6.80819 9.13568 5.77397 9.54096 4.6054 9.54096ZM60.0509 36.3239C57.114 36.3239 54.5526 35.8196 52.3667 34.8104C50.1808 33.8013 48.4872 32.3538 47.286 30.4675C46.0841 28.5818 45.4838 26.3487 45.4838 23.7676C45.4838 21.2201 46.059 18.987 47.2106 17.0677C48.3617 15.149 49.9805 13.6598 52.0665 12.6014C54.152 11.5425 56.5633 11.0133 59.2999 11.0133C61.6358 11.0133 63.6132 11.3769 65.2321 12.1052C66.8503 12.833 68.0603 13.7924 68.861 14.9833C69.6622 16.1749 70.0623 17.4816 70.0623 18.9042C70.0623 21.4847 68.8359 23.4202 66.3831 24.7108C63.9304 26.0013 60.5847 26.6462 56.3466 26.6462L54.6443 26.5965L53.443 26.5473C54.01 27.9038 54.9363 28.8794 56.2211 29.4752C57.5058 30.0709 58.9997 30.3685 60.7015 30.3685C62.3366 30.3685 63.8468 30.178 65.2321 29.7976C66.6167 29.4173 68.0936 28.8134 69.6622 27.9866V34.041C68.7944 34.6697 67.4927 35.2076 65.7577 35.654C64.022 36.1004 62.12 36.3239 60.0509 36.3239ZM54.6945 23.371C57.5309 23.2054 59.617 22.8412 60.952 22.279C62.2864 21.7163 62.9539 20.8565 62.9539 19.6985C62.9539 18.8382 62.6205 18.1434 61.9529 17.6137C61.2854 17.0845 60.3341 16.8199 59.0996 16.8199C57.2974 16.8199 55.8123 17.4237 54.6443 18.6315C53.4763 19.8387 52.8923 21.4517 52.8923 23.47L54.6945 23.371ZM74.8183 11.7081H81.3257V18.1596C81.8595 15.9433 82.7857 14.1977 84.1038 12.9239C85.4225 11.6502 86.9993 11.0133 88.8348 11.0133C89.8024 11.0133 90.6702 11.187 91.4376 11.5344C92.205 11.8818 92.7557 12.386 93.0897 13.0478V20.6909C91.8885 19.4004 90.1195 18.7554 87.7836 18.7554C86.1817 18.7554 84.8718 19.1937 83.8539 20.0702C82.836 20.9474 82.3267 22.1465 82.3267 23.6686V35.6291H74.8183V11.7081Z"/>
</mask>
<path fill-rule="evenodd" clip-rule="evenodd" d="M19.5358 33.9165C19.5924 35.2365 19.6887 36.1056 19.6963 36.1924C20.3527 43.5779 22.4119 51.9053 23.1559 55.0028L16.2275 56.6488C13.7893 46.5804 10.9224 33.9587 13.1293 23.9859C14.0877 20.3783 16.0078 15.6914 20.1904 12.8307C23.7598 10.8078 27.2982 10.8929 29.1337 10.9606C36.5849 11.2362 43.9455 17.6472 42.4225 25.9046C41.957 28.4255 40.8474 30.4247 40.0316 31.3811C36.7665 35.2059 31.6723 36.6394 27.2223 36.2689C26.5337 36.2116 24.0927 36.1484 21.3759 34.9221C21.2597 33.1435 21.0518 31.0071 21.5488 27.3069C22.6263 28.9379 24.3671 30.3048 27.1721 30.4907C33.5481 30.9127 35.0776 25.6892 35.2201 23.9795C35.2534 23.5742 35.3912 20.5658 32.9285 18.4786C31.4626 17.2367 29.8689 16.5831 28.0504 16.6705C23.8708 16.8714 22.2402 19.5133 21.0612 22.2871C20.7581 22.9999 20.5105 23.7606 20.3096 24.544C19.7682 27.33 19.3512 30.0941 19.5358 33.9165ZM12.6078 19.6181C12.4904 16.1795 13.0073 13.3501 13.1293 12.6837C14.2331 6.64435 16.8354 2.03916 18.0133 0L24.2947 2.46818C23.2646 4.35043 21.8595 7.15153 20.9 10.1524C15.8461 12.2459 13.1416 18.1463 12.6078 19.6181ZM114.718 35.6551C113.546 35.9823 112.661 36.0969 112.201 36.1351C106.555 36.6018 100.43 35.6644 97.0252 30.5092C94.6221 26.8697 94.2069 21.7933 96.1551 18.067C97.9614 14.6128 102.283 10.7997 108.933 10.6914C115.83 10.5785 120.24 14.196 122.376 18.1399C124.557 21.7371 124.755 26.0754 124.552 28.9419C124.458 30.1381 124.26 31.7627 123.909 33.5205C123.27 36.7245 123.307 36.7291 122.725 39.9454C122.13 43.2287 121.223 48.1385 121.765 50.3808C121.963 51.1995 121.941 53.3354 126.019 53.12C126.329 53.1038 126.809 53.0383 126.877 53.0285L128.264 58.5554C128.201 58.5705 125.124 59.4771 121.642 58.6573C117.066 57.5804 115.248 53.8703 114.795 51.7183C113.923 47.5774 115.162 42.3661 116.543 35.0403C117.178 31.4651 117.261 29.7299 117.287 26.7644C117.454 18.7091 113.065 17.3878 111.327 16.9768C111.279 16.9658 109.224 16.6039 107.546 17.0758C104.955 17.8053 103.305 19.7686 102.763 21.5021C102.681 21.7655 101.847 23.4874 102.649 25.8838C102.891 26.6098 103.579 28.2535 106.274 29.4769C108.595 30.5306 112.31 30.5995 115.585 28.3021C115.496 31.23 115.14 33.3045 114.718 35.6551ZM123.221 16.0394C124.467 12.7439 125.22 9.81598 125.509 8.75703L132 10.2473C130.998 14.9978 129.6 20.7065 126.706 25.9208C126.7 25.9295 126.602 26.0956 126.422 26.373C126.358 24.4791 125.952 19.8526 123.221 16.0394ZM0.751022 11.6583H8.26003V35.6291H0.751022V11.6583ZM4.6054 9.54096C3.37084 9.54096 2.29453 9.1438 1.37708 8.34944C0.459038 7.55566 0 6.56329 0 5.37176C0 4.1808 0.459038 3.17975 1.37708 2.36918C2.29453 1.55861 3.37084 1.15332 4.6054 1.15332C5.77397 1.15332 6.80819 1.55861 7.70929 2.36918C8.61039 3.17975 9.06067 4.1808 9.06067 5.37176C9.06067 6.52971 8.61039 7.51454 7.70929 8.32511C6.80819 9.13568 5.77397 9.54096 4.6054 9.54096ZM60.0509 36.3239C57.114 36.3239 54.5526 35.8196 52.3667 34.8104C50.1808 33.8013 48.4872 32.3538 47.286 30.4675C46.0841 28.5818 45.4838 26.3487 45.4838 23.7676C45.4838 21.2201 46.059 18.987 47.2106 17.0677C48.3617 15.149 49.9805 13.6598 52.0665 12.6014C54.152 11.5425 56.5633 11.0133 59.2999 11.0133C61.6358 11.0133 63.6132 11.3769 65.2321 12.1052C66.8503 12.833 68.0603 13.7924 68.861 14.9833C69.6622 16.1749 70.0623 17.4816 70.0623 18.9042C70.0623 21.4847 68.8359 23.4202 66.3831 24.7108C63.9304 26.0013 60.5847 26.6462 56.3466 26.6462L54.6443 26.5965L53.443 26.5473C54.01 27.9038 54.9363 28.8794 56.2211 29.4752C57.5058 30.0709 58.9997 30.3685 60.7015 30.3685C62.3366 30.3685 63.8468 30.178 65.2321 29.7976C66.6167 29.4173 68.0936 28.8134 69.6622 27.9866V34.041C68.7944 34.6697 67.4927 35.2076 65.7577 35.654C64.022 36.1004 62.12 36.3239 60.0509 36.3239ZM54.6945 23.371C57.5309 23.2054 59.617 22.8412 60.952 22.279C62.2864 21.7163 62.9539 20.8565 62.9539 19.6985C62.9539 18.8382 62.6205 18.1434 61.9529 17.6137C61.2854 17.0845 60.3341 16.8199 59.0996 16.8199C57.2974 16.8199 55.8123 17.4237 54.6443 18.6315C53.4763 19.8387 52.8923 21.4517 52.8923 23.47L54.6945 23.371ZM74.8183 11.7081H81.3257V18.1596C81.8595 15.9433 82.7857 14.1977 84.1038 12.9239C85.4225 11.6502 86.9993 11.0133 88.8348 11.0133C89.8024 11.0133 90.6702 11.187 91.4376 11.5344C92.205 11.8818 92.7557 12.386 93.0897 13.0478V20.6909C91.8885 19.4004 90.1195 18.7554 87.7836 18.7554C86.1817 18.7554 84.8718 19.1937 83.8539 20.0702C82.836 20.9474 82.3267 22.1465 82.3267 23.6686V35.6291H74.8183V11.7081Z" fill="#2D0051" stroke="#2D0051" stroke-width="3.46174" mask="url(#path-1-inside-1_219_502)"/>
</svg>
